<svg enable-background="new 0 0 512.003 512.003" viewBox="0 0 512.003 512.003" xmlns="http://www.w3.org/2000/svg"><circle cx="305.298" cy="41.178" fill="#f15a29" r="30.558"/><circle cx="105.045" cy="409.639" fill="#ffde17" r="30.558"/><circle cx="443.476" cy="404.276" fill="#0eddf0" r="30.558"/><circle cx="255.968" cy="257.113" fill="#f7941e" r="29.205"/><g fill="#231f20"><path d="m319.369 342.28c-2.943-5.073-9.441-6.8-14.516-3.857l-1.459.845c-5.077 2.934-6.816 9.431-3.881 14.509 1.968 3.406 5.536 5.308 9.206 5.308 1.802 0 3.63-.46 5.304-1.426l1.49-.863c5.073-2.944 6.8-9.443 3.856-14.516z"/><path d="m451.362 272.547c-3.841-5.165-7.963-10.325-12.344-15.466 9.621-11.266 17.915-22.52 24.638-33.529 22.613-37.033 27.125-69.496 13.048-93.877-16.339-28.298-55.289-40.395-109.675-34.059-6.378.743-12.892 1.729-19.52 2.948-2.258-6.349-4.66-12.483-7.206-18.379-1.618-3.748-3.284-7.367-4.992-10.859 6.917-7.369 11.166-17.27 11.166-28.151 0-22.702-18.473-41.175-41.179-41.175-9.044 0-17.411 2.938-24.212 7.899-8.117-3.74-16.522-5.664-25.118-5.664-32.677 0-62.627 27.685-84.333 77.953-2.546 5.895-4.949 12.029-7.206 18.379-6.627-1.219-13.141-2.206-19.52-2.948-54.385-6.339-93.337 5.759-109.675 34.059-16.338 28.298-7.337 68.078 25.342 112.011 3.833 5.153 7.944 10.3 12.313 15.43-4.37 5.13-8.48 10.277-12.313 15.43-32.679 43.933-41.68 83.713-25.342 112.011 6.335 10.973 15.994 19.492 28.642 25.46.205 22.531 18.589 40.799 41.168 40.799 19.651 0 36.121-13.841 40.199-32.284 6.233-.74 12.626-1.713 19.163-2.924 2.263 6.371 4.674 12.524 7.228 18.439 21.706 50.268 51.657 77.953 84.333 77.953s62.627-27.684 84.333-77.953c2.546-5.895 4.949-12.029 7.206-18.379 6.627 1.219 13.141 2.206 19.52 2.948 9.448 1.1 18.428 1.645 26.905 1.645 3.929 0 7.745-.122 11.454-.357 6.168 14.977 20.913 25.55 38.089 25.55 22.706 0 41.177-18.473 41.177-41.178 0-8.2-2.419-15.842-6.567-22.266 14.4-28.117 4.99-66.835-26.722-109.466zm-81.875-155.832c44.783-5.219 77.159 3.378 88.823 23.581 9.808 16.989 5.27 42.625-12.781 72.187-5.752 9.419-12.778 19.059-20.899 28.75-16.279-16.893-35.242-33.41-56.246-49.017-3.015-26.001-7.838-50.689-14.333-73.24 5.229-.91 10.382-1.672 15.436-2.261zm-160.945 222.552c-15.738-9.087-30.761-18.761-44.878-28.856-1.683-17.273-2.551-35.121-2.551-53.293s.868-36.02 2.551-53.293c14.116-10.094 29.139-19.769 44.878-28.856 15.738-9.087 31.629-17.259 47.428-24.438 15.8 7.178 31.69 15.351 47.428 24.438s30.761 18.761 44.878 28.856c1.683 17.273 2.551 35.121 2.551 53.293 0 19.616-1.011 38.854-2.968 57.399-.064.394-.104.79-.124 1.189-2.9 26.874-7.804 52.259-14.527 75.191-39.562-9.614-82.655-27.376-124.666-51.63zm21.13 35.435c-17.428 6.717-34.563 12.132-50.959 16.13-4.768-16.276-8.62-33.787-11.489-52.189 9.898 6.571 20.146 12.927 30.697 19.018 10.529 6.078 21.134 11.764 31.751 17.041zm-88.678-81.491c-14.523-11.701-27.777-23.808-39.499-36.094 11.722-12.284 24.976-24.391 39.499-36.092-.741 11.857-1.121 23.91-1.121 36.094 0 12.182.38 24.235 1.121 36.092zm26.23-117.618c2.873-18.428 6.731-35.96 11.508-52.254 16.5 4.009 33.613 9.435 51.007 16.161-10.639 5.287-21.268 10.983-31.819 17.075-10.55 6.091-20.798 12.447-30.696 19.018zm114.975-36.094c17.395-6.726 34.508-12.152 51.007-16.161 4.778 16.294 8.635 33.826 11.508 52.254-9.898-6.571-20.146-12.927-30.696-19.019-10.551-6.09-21.179-11.787-31.819-17.074zm88.746 81.526c14.509 11.691 27.752 23.787 39.468 36.06-11.664 12.2-24.928 24.336-39.464 36.073.739-11.839 1.118-23.875 1.118-36.039 0-12.184-.38-24.238-1.122-36.094zm-45.709-179.848c0 10.994-8.944 19.938-19.937 19.938s-19.937-8.944-19.937-19.938 8.944-19.937 19.937-19.937 19.937 8.944 19.937 19.937zm-134.1 47.431c17.875-41.393 41.506-65.133 64.834-65.133 3.774 0 7.556.646 11.321 1.868-2.04 4.878-3.171 10.226-3.171 15.835 0 22.706 18.473 41.178 41.177 41.178 4.123 0 8.103-.616 11.861-1.749 1.237 2.592 2.456 5.25 3.644 8.001 2.017 4.671 3.934 9.515 5.76 14.499-22.776 5.651-46.568 13.818-70.594 24.207-24.026-10.39-47.817-18.557-70.594-24.207 1.828-4.985 3.745-9.827 5.762-14.499zm-113.516 140.402c-26.911-36.175-35.655-68.51-23.991-88.714 11.663-20.203 44.035-28.801 88.823-23.581 5.054.588 10.207 1.35 15.436 2.261-6.494 22.551-11.318 47.238-14.332 73.24-21.011 15.612-39.979 32.132-56.261 49.032-3.403-4.074-6.638-8.156-9.675-12.238zm27.426 200.567c-10.994 0-19.937-8.944-19.937-19.938s8.944-19.937 19.937-19.937 19.937 8.944 19.937 19.937c0 10.994-8.944 19.938-19.937 19.938zm39.274-32.317c-5.268-16.676-20.88-28.8-39.273-28.8-15.152 0-28.41 8.232-35.559 20.453-7.007-3.919-12.367-8.932-15.857-14.975-11.664-20.203-2.919-52.539 23.99-88.714 3.036-4.082 6.272-8.164 9.676-12.238 16.282 16.9 35.25 33.42 56.261 49.032 3.013 25.986 7.832 50.661 14.321 73.2-4.607.81-9.129 1.491-13.559 2.042zm176.484 28.368c-17.875 41.393-41.506 65.133-64.834 65.133s-46.959-23.74-64.834-65.133c-2.025-4.69-3.949-9.552-5.782-14.557 22.691-5.638 46.579-13.79 70.59-24.161 24.034 10.395 47.835 18.566 70.618 24.219-1.825 4.984-3.742 9.827-5.758 14.499zm48.683-28.108c-5.054-.588-10.207-1.35-15.436-2.261 6.495-22.554 11.319-47.246 14.334-73.251 20.997-15.62 39.987-32.236 56.22-49.069 3.419 4.09 6.667 8.187 9.716 12.285 24.08 32.37 33.601 61.657 26.984 81.937-5.397-2.603-11.444-4.062-17.827-4.062-20.835 0-38.092 15.556-40.798 35.661-10.07.549-21.176.16-33.193-1.24zm73.988 26.695c-10.994 0-19.937-8.944-19.937-19.938s8.944-19.937 19.937-19.937 19.937 8.944 19.937 19.937c.002 10.994-8.943 19.938-19.937 19.938z"/><path d="m255.97 217.292c-21.96 0-39.825 17.865-39.825 39.825s17.865 39.825 39.825 39.825 39.825-17.865 39.825-39.825-17.865-39.825-39.825-39.825zm0 58.41c-10.247 0-18.585-8.338-18.585-18.585s8.338-18.585 18.585-18.585 18.585 8.338 18.585 18.585c0 10.248-8.338 18.585-18.585 18.585z"/></g></svg>