<?xml version="1.0" encoding="utf-8"?>
<!-- Generator: Adobe Illustrator 24.1.2, SVG Export Plug-In . SVG Version: 6.00 Build 0)  -->
<svg version="1.1" id="Layer_1" xmlns="http://www.w3.org/2000/svg" xmlns:xlink="http://www.w3.org/1999/xlink" x="0px" y="0px"
	 viewBox="0 0 512 512" style="enable-background:new 0 0 512 512;" xml:space="preserve">
<style type="text/css">
	.st0{display:none;fill:#231F20;}
	.st1{fill:#FFFFFF;}
	.st2{fill:#985A96;}
	.st3{fill:#FFD86D;}
	.st4{fill:#DE8383;}
	.st5{fill:#F7A585;}
</style>
<g>
	<path class="st0" d="M451.4,272.5c-3.8-5.2-8-10.3-12.3-15.5c9.6-11.3,17.9-22.5,24.6-33.5c22.6-37,27.1-69.5,13-93.9
		c-16.3-28.3-55.3-40.4-109.7-34.1c-6.4,0.7-12.9,1.7-19.5,2.9c-2.3-6.3-4.7-12.5-7.2-18.4c-1.6-3.7-3.3-7.4-5-10.9
		c6.9-7.4,11.2-17.3,11.2-28.2C346.5,18.5,328,0,305.3,0c-9,0-17.4,2.9-24.2,7.9C273,4.2,264.6,2.2,256,2.2
		c-32.7,0-62.6,27.7-84.3,78c-2.5,5.9-4.9,12-7.2,18.4c-6.6-1.2-13.1-2.2-19.5-2.9c-54.4-6.3-93.3,5.8-109.7,34.1
		c-16.3,28.3-7.3,68.1,25.3,112c3.8,5.2,7.9,10.3,12.3,15.4c-4.4,5.1-8.5,10.3-12.3,15.4c-32.7,43.9-41.7,83.7-25.3,112
		c6.3,11,16,19.5,28.6,25.5c0.2,22.5,18.6,40.8,41.2,40.8c19.7,0,36.1-13.8,40.2-32.3c6.2-0.7,12.6-1.7,19.2-2.9
		c2.3,6.4,4.7,12.5,7.2,18.4c21.7,50.3,51.7,78,84.3,78s62.6-27.7,84.3-78c2.5-5.9,4.9-12,7.2-18.4c6.6,1.2,13.1,2.2,19.5,2.9
		c9.4,1.1,18.4,1.6,26.9,1.6c3.9,0,7.7-0.1,11.5-0.4c6.2,15,20.9,25.5,38.1,25.5c22.7,0,41.2-18.5,41.2-41.2
		c0-8.2-2.4-15.8-6.6-22.3C492.5,353.9,483.1,315.2,451.4,272.5L451.4,272.5z M369.5,116.7c44.8-5.2,77.2,3.4,88.8,23.6
		c9.8,17,5.3,42.6-12.8,72.2c-5.8,9.4-12.8,19.1-20.9,28.8c-16.3-16.9-35.2-33.4-56.2-49c-3-26-7.8-50.7-14.3-73.2
		C359.3,118.1,364.4,117.3,369.5,116.7z M208.5,339.3c-15.7-9.1-30.8-18.8-44.9-28.9c-1.7-17.3-2.6-35.1-2.6-53.3s0.9-36,2.6-53.3
		c14.1-10.1,29.1-19.8,44.9-28.9c15.7-9.1,31.6-17.3,47.4-24.4c15.8,7.2,31.7,15.4,47.4,24.4s30.8,18.8,44.9,28.9
		c1.7,17.3,2.6,35.1,2.6,53.3c0,19.6-1,38.9-3,57.4c-0.1,0.4-0.1,0.8-0.1,1.2c-2.9,26.9-7.8,52.3-14.5,75.2
		C293.6,381.3,250.6,363.5,208.5,339.3L208.5,339.3z M229.7,374.7c-17.4,6.7-34.6,12.1-51,16.1c-4.8-16.3-8.6-33.8-11.5-52.2
		c9.9,6.6,20.1,12.9,30.7,19C208.5,363.7,219.1,369.4,229.7,374.7L229.7,374.7z M141,293.2c-14.5-11.7-27.8-23.8-39.5-36.1
		c11.7-12.3,25-24.4,39.5-36.1c-0.7,11.9-1.1,23.9-1.1,36.1C139.9,269.3,140.3,281.4,141,293.2L141,293.2z M167.2,175.6
		c2.9-18.4,6.7-36,11.5-52.3c16.5,4,33.6,9.4,51,16.2c-10.6,5.3-21.3,11-31.8,17.1C187.4,162.7,177.1,169,167.2,175.6z M282.2,139.5
		c17.4-6.7,34.5-12.2,51-16.2c4.8,16.3,8.6,33.8,11.5,52.3c-9.9-6.6-20.1-12.9-30.7-19C303.5,150.5,292.8,144.8,282.2,139.5
		L282.2,139.5z M370.9,221c14.5,11.7,27.8,23.8,39.5,36.1c-11.7,12.2-24.9,24.3-39.5,36.1c0.7-11.8,1.1-23.9,1.1-36
		C372.1,244.9,371.7,232.9,370.9,221z M325.2,41.2c0,11-8.9,19.9-19.9,19.9s-19.9-8.9-19.9-19.9s8.9-19.9,19.9-19.9
		S325.2,30.2,325.2,41.2z M191.1,88.6C209,47.2,232.6,23.5,256,23.5c3.8,0,7.6,0.6,11.3,1.9c-2,4.9-3.2,10.2-3.2,15.8
		c0,22.7,18.5,41.2,41.2,41.2c4.1,0,8.1-0.6,11.9-1.7c1.2,2.6,2.5,5.2,3.6,8c2,4.7,3.9,9.5,5.8,14.5c-22.8,5.7-46.6,13.8-70.6,24.2
		c-24-10.4-47.8-18.6-70.6-24.2C187.2,98.1,189.1,93.3,191.1,88.6L191.1,88.6z M77.6,229c-26.9-36.2-35.7-68.5-24-88.7
		s44-28.8,88.8-23.6c5.1,0.6,10.2,1.3,15.4,2.3c-6.5,22.6-11.3,47.2-14.3,73.2c-21,15.6-40,32.1-56.3,49
		C83.9,237.2,80.7,233.1,77.6,229z M105,429.6c-11,0-19.9-8.9-19.9-19.9s8.9-19.9,19.9-19.9s19.9,8.9,19.9,19.9
		C125,420.6,116,429.6,105,429.6z M144.3,397.3c-5.3-16.7-20.9-28.8-39.3-28.8c-15.2,0-28.4,8.2-35.6,20.5c-7-3.9-12.4-8.9-15.9-15
		c-11.7-20.2-2.9-52.5,24-88.7c3-4.1,6.3-8.2,9.7-12.2c16.3,16.9,35.2,33.4,56.3,49c3,26,7.8,50.7,14.3,73.2
		C153.3,396,148.7,396.7,144.3,397.3z M320.8,425.6c-17.9,41.4-41.5,65.1-64.8,65.1s-47-23.7-64.8-65.1c-2-4.7-3.9-9.6-5.8-14.6
		c22.7-5.6,46.6-13.8,70.6-24.2c24,10.4,47.8,18.6,70.6,24.2C324.7,416.1,322.8,421,320.8,425.6L320.8,425.6z M369.5,397.5
		c-5.1-0.6-10.2-1.4-15.4-2.3c6.5-22.6,11.3-47.2,14.3-73.3c21-15.6,40-32.2,56.2-49.1c3.4,4.1,6.7,8.2,9.7,12.3
		c24.1,32.4,33.6,61.7,27,81.9c-5.4-2.6-11.4-4.1-17.8-4.1c-20.8,0-38.1,15.6-40.8,35.7C392.6,399.3,381.5,398.9,369.5,397.5
		L369.5,397.5z M443.5,424.2c-11,0-19.9-8.9-19.9-19.9s8.9-19.9,19.9-19.9s19.9,8.9,19.9,19.9C463.4,415.3,454.5,424.2,443.5,424.2z
		"/>
	<path class="st1" d="M319.4,342.3c-2.9-5.1-9.4-6.8-14.5-3.9l-1.5,0.8c-5.1,2.9-6.8,9.4-3.9,14.5c2,3.4,5.5,5.3,9.2,5.3
		c1.8,0,3.6-0.5,5.3-1.4l1.5-0.9C320.6,353.9,322.3,347.4,319.4,342.3L319.4,342.3z"/>
	<path class="st1" d="M369.5,116.7c44.8-5.2,77.2,3.4,88.8,23.6c9.8,17,5.3,42.6-12.8,72.2c-5.8,9.4-12.8,19.1-20.9,28.8
		c-16.3-16.9-35.2-33.4-56.2-49c-3-26-7.8-50.7-14.3-73.2C359.3,118.1,364.4,117.3,369.5,116.7z M208.5,339.2
		c-15.7-9.1-30.8-18.8-44.9-28.9c-1.7-17.3-2.6-35.1-2.6-53.3s0.9-36,2.6-53.3c14.1-10.1,29.1-19.8,44.9-28.9
		c15.7-9.1,31.6-17.3,47.4-24.4c15.8,7.2,31.7,15.4,47.4,24.4s30.8,18.8,44.9,28.9c1.7,17.3,2.6,35.1,2.6,53.3c0,19.6-1,38.9-3,57.4
		c-0.1,0.4-0.1,0.8-0.1,1.2c-2.9,26.9-7.8,52.3-14.5,75.2C293.6,381.2,250.6,363.5,208.5,339.2L208.5,339.2z M229.7,374.7
		c-17.4,6.7-34.6,12.1-51,16.1c-4.8-16.3-8.6-33.8-11.5-52.2c9.9,6.6,20.1,12.9,30.7,19C208.5,363.7,219.1,369.4,229.7,374.7
		L229.7,374.7z M141,293.2c-14.5-11.7-27.8-23.8-39.5-36.1c11.7-12.3,25-24.4,39.5-36.1c-0.7,11.9-1.1,23.9-1.1,36.1
		C139.9,269.2,140.3,281.4,141,293.2L141,293.2z M167.2,175.6c2.9-18.4,6.7-36,11.5-52.3c16.5,4,33.6,9.4,51,16.2
		c-10.6,5.3-21.3,11-31.8,17.1C187.4,162.7,177.1,169,167.2,175.6z M282.2,139.5c17.4-6.7,34.5-12.2,51-16.2
		c4.8,16.3,8.6,33.8,11.5,52.3c-9.9-6.6-20.1-12.9-30.7-19C303.5,150.5,292.8,144.8,282.2,139.5L282.2,139.5z M370.9,221
		c14.5,11.7,27.8,23.8,39.5,36.1c-11.7,12.2-24.9,24.3-39.5,36.1c0.7-11.8,1.1-23.9,1.1-36C372.1,244.9,371.7,232.9,370.9,221z
		 M325.2,41.2c0,11-8.9,19.9-19.9,19.9s-19.9-8.9-19.9-19.9s8.9-19.9,19.9-19.9S325.2,30.2,325.2,41.2z M191.1,88.6
		C209,47.2,232.6,23.5,256,23.5c3.8,0,7.6,0.6,11.3,1.9c-2,4.9-3.2,10.2-3.2,15.8c0,22.7,18.5,41.2,41.2,41.2
		c4.1,0,8.1-0.6,11.9-1.7c1.2,2.6,2.5,5.2,3.6,8c2,4.7,3.9,9.5,5.8,14.5c-22.8,5.7-46.6,13.8-70.6,24.2
		c-24-10.4-47.8-18.6-70.6-24.2C187.2,98.1,189.1,93.3,191.1,88.6L191.1,88.6z M77.6,229c-26.9-36.2-35.7-68.5-24-88.7
		s44-28.8,88.8-23.6c5.1,0.6,10.2,1.3,15.4,2.3c-6.5,22.6-11.3,47.2-14.3,73.2c-21,15.6-40,32.1-56.3,49
		C83.9,237.2,80.7,233.1,77.6,229z M69.4,389c-6.2-4.4-12-8.4-15.9-15c-11.7-20.2-2.9-52.5,24-88.7c3-4.1,6.3-8.2,9.7-12.2
		c16.3,16.9,35.2,33.4,56.3,49c3,26,7.8,50.7,14.3,73.2c-3,0.5-7.5,1.2-13,2.1c-24.6,3.8-37,5.7-43.2,4.9
		C85.4,400.1,73.8,392.1,69.4,389z M63.9,410 M145.3,418.6c4.8-0.6,9.5-1.3,9.5-1.3c3.2-0.5,6.4-1.1,9.7-1.7
		c2.3,6.4,4.7,12.5,7.2,18.4c21.7,50.3,51.7,78,84.3,78s62.6-27.7,84.3-78c2.5-5.9,4.9-12,7.2-18.4c6.6,1.2,13.1,2.2,19.5,2.9
		c9.4,1.1,18.4,1.6,26.9,1.6c3.9,0,7.7-0.1,11.5-0.4c6.2,15,20.9,25.5,38.1,25.5c22.7,0,41.2-18.5,41.2-41.2
		c0-8.2-2.4-15.8-6.6-22.3c14.4-27.9,5-66.6-26.7-109.3c-3.8-5.2-8-10.3-12.3-15.5c9.6-11.3,17.9-22.5,24.6-33.5
		c22.6-37,27.1-69.5,13-93.9c-16.3-28.3-55.3-40.4-109.7-34.1c-6.4,0.7-12.9,1.7-19.5,2.9c-2.3-6.3-4.7-12.5-7.2-18.4
		c-1.6-3.7-3.3-7.4-5-10.9c6.9-7.4,11.2-17.3,11.2-28.2C346.5,18.5,328,6,305.3,6c-9,0-17.4-3.1-24.2,1.9C273,4.2,264.6,2.2,256,2.2
		c-32.7,0-62.6,27.7-84.3,78c-2.5,5.9-4.9,12-7.2,18.4c-6.6-1.2-13.1-2.2-19.5-2.9c-54.4-6.3-93.3,5.8-109.7,34.1
		C19,158,28,197.9,60.6,241.8c3.8,5.2,7.9,10.3,12.3,15.4c-4.4,5.1-8.5,10.3-12.3,15.4c-32.7,43.9-41.7,83.7-25.3,112
		c8.3,14.3,22.1,21.9,28.6,25.5c17.9,9.8,35,10.6,43.2,11C119.9,421.6,134.3,419.9,145.3,418.6z M320.8,425.6
		c-17.9,41.4-41.5,65.1-64.8,65.1s-47-23.7-64.8-65.1c-2-4.7-3.9-9.6-5.8-14.6c22.7-5.6,46.6-13.8,70.6-24.2
		c24,10.4,47.8,18.6,70.6,24.2C324.7,416.1,322.8,421,320.8,425.6L320.8,425.6z M369.5,397.5c-5.1-0.6-10.2-1.4-15.4-2.3
		c6.5-22.6,11.3-47.2,14.3-73.3c21-15.6,40-32.2,56.2-49.1c3.4,4.1,6.7,8.2,9.7,12.3c24.1,32.4,33.6,61.7,27,81.9
		c-5.4-2.6-11.4,1.5-17.8,1.5c-20.8,0-38.1,10-40.8,30.1C392.6,399.2,381.5,398.9,369.5,397.5L369.5,397.5z M443.5,424.2
		c-11,0-19.9-8.9-19.9-19.9s8.9-19.9,19.9-19.9s19.9,8.9,19.9,19.9C463.4,415.2,454.5,424.2,443.5,424.2z"/>
</g>
<circle class="st2" cx="305.3" cy="41.2" r="41.1"/>
<circle class="st3" cx="105" cy="409.6" r="41.1"/>
<circle class="st4" cx="443.7" cy="404.3" r="41.1"/>
<circle class="st5" cx="256" cy="257.1" r="29.2"/>
</svg>
