<?xml version="1.0" encoding="iso-8859-1"?>
<!-- Generator: Adobe Illustrator 19.0.0, SVG Export Plug-In . SVG Version: 6.00 Build 0)  -->
<svg version="1.1" id="Layer_1" xmlns="http://www.w3.org/2000/svg" xmlns:xlink="http://www.w3.org/1999/xlink" x="0px" y="0px"
	 viewBox="0 0 512.003 512.003" style="enable-background:new 0 0 512.003 512.003;" xml:space="preserve">
<circle style="fill:#F15A29;" cx="305.298" cy="41.178" r="30.558"/>
<circle style="fill:#FFDE17;" cx="105.045" cy="409.639" r="30.558"/>
<circle style="fill:#0EDDF0;" cx="443.476" cy="404.276" r="30.558"/>
<circle style="fill:#F7941E;" cx="255.968" cy="257.113" r="29.205"/>
<g>
	<path style="fill:#231F20;" d="M319.369,342.28c-2.943-5.073-9.441-6.8-14.516-3.857l-1.459,0.845
		c-5.077,2.934-6.816,9.431-3.881,14.509c1.968,3.406,5.536,5.308,9.206,5.308c1.802,0,3.63-0.46,5.304-1.426l1.49-0.863
		C320.586,353.852,322.313,347.353,319.369,342.28z"/>
	<path style="fill:#231F20;" d="M451.362,272.547c-3.841-5.165-7.963-10.325-12.344-15.466c9.621-11.266,17.915-22.52,24.638-33.529
		c22.613-37.033,27.125-69.496,13.048-93.877c-16.339-28.298-55.289-40.395-109.675-34.059c-6.378,0.743-12.892,1.729-19.52,2.948
		c-2.258-6.349-4.66-12.483-7.206-18.379c-1.618-3.748-3.284-7.367-4.992-10.859c6.917-7.369,11.166-17.27,11.166-28.151
		C346.477,18.473,328.004,0,305.298,0c-9.044,0-17.411,2.938-24.212,7.899c-8.117-3.74-16.522-5.664-25.118-5.664
		c-32.677,0-62.627,27.685-84.333,77.953c-2.546,5.895-4.949,12.029-7.206,18.379c-6.627-1.219-13.141-2.206-19.52-2.948
		c-54.385-6.339-93.337,5.759-109.675,34.059c-16.338,28.298-7.337,68.078,25.342,112.011c3.833,5.153,7.944,10.3,12.313,15.43
		c-4.37,5.13-8.48,10.277-12.313,15.43c-32.679,43.933-41.68,83.713-25.342,112.011c6.335,10.973,15.994,19.492,28.642,25.46
		c0.205,22.531,18.589,40.799,41.168,40.799c19.651,0,36.121-13.841,40.199-32.284c6.233-0.74,12.626-1.713,19.163-2.924
		c2.263,6.371,4.674,12.524,7.228,18.439c21.706,50.268,51.657,77.953,84.333,77.953s62.627-27.684,84.333-77.953
		c2.546-5.895,4.949-12.029,7.206-18.379c6.627,1.219,13.141,2.206,19.52,2.948c9.448,1.1,18.428,1.645,26.905,1.645
		c3.929,0,7.745-0.122,11.454-0.357c6.168,14.977,20.913,25.55,38.089,25.55c22.706,0,41.177-18.473,41.177-41.178
		c0-8.2-2.419-15.842-6.567-22.266C492.484,353.896,483.074,315.178,451.362,272.547z M369.487,116.715
		c44.783-5.219,77.159,3.378,88.823,23.581c9.808,16.989,5.27,42.625-12.781,72.187c-5.752,9.419-12.778,19.059-20.899,28.75
		c-16.279-16.893-35.242-33.41-56.246-49.017c-3.015-26.001-7.838-50.689-14.333-73.24
		C359.28,118.066,364.433,117.304,369.487,116.715z M208.542,339.267c-15.738-9.087-30.761-18.761-44.878-28.856
		c-1.683-17.273-2.551-35.121-2.551-53.293c0-18.172,0.868-36.02,2.551-53.293c14.116-10.094,29.139-19.769,44.878-28.856
		c15.738-9.087,31.629-17.259,47.428-24.438c15.8,7.178,31.69,15.351,47.428,24.438c15.738,9.087,30.761,18.761,44.878,28.856
		c1.683,17.273,2.551,35.121,2.551,53.293c0,19.616-1.011,38.854-2.968,57.399c-0.064,0.394-0.104,0.79-0.124,1.189
		c-2.9,26.874-7.804,52.259-14.527,75.191C293.646,381.283,250.553,363.521,208.542,339.267z M229.672,374.702
		c-17.428,6.717-34.563,12.132-50.959,16.13c-4.768-16.276-8.62-33.787-11.489-52.189c9.898,6.571,20.146,12.927,30.697,19.018
		C208.45,363.739,219.055,369.425,229.672,374.702z M140.994,293.211c-14.523-11.701-27.777-23.808-39.499-36.094
		c11.722-12.284,24.976-24.391,39.499-36.092c-0.741,11.857-1.121,23.91-1.121,36.094
		C139.873,269.301,140.253,281.354,140.994,293.211z M167.224,175.593c2.873-18.428,6.731-35.96,11.508-52.254
		c16.5,4.009,33.613,9.435,51.007,16.161c-10.639,5.287-21.268,10.983-31.819,17.075
		C187.37,162.666,177.122,169.022,167.224,175.593z M282.199,139.499c17.395-6.726,34.508-12.152,51.007-16.161
		c4.778,16.294,8.635,33.826,11.508,52.254c-9.898-6.571-20.146-12.927-30.696-19.019
		C303.467,150.483,292.839,144.786,282.199,139.499z M370.945,221.025c14.509,11.691,27.752,23.787,39.468,36.06
		c-11.664,12.2-24.928,24.336-39.464,36.073c0.739-11.839,1.118-23.875,1.118-36.039
		C372.067,244.935,371.687,232.881,370.945,221.025z M325.236,41.177c0,10.994-8.944,19.938-19.937,19.938
		c-10.993,0-19.937-8.944-19.937-19.938s8.944-19.937,19.937-19.937C316.292,21.24,325.236,30.184,325.236,41.177z M191.136,88.608
		c17.875-41.393,41.506-65.133,64.834-65.133c3.774,0,7.556,0.646,11.321,1.868c-2.04,4.878-3.171,10.226-3.171,15.835
		c0,22.706,18.473,41.178,41.177,41.178c4.123,0,8.103-0.616,11.861-1.749c1.237,2.592,2.456,5.25,3.644,8.001
		c2.017,4.671,3.934,9.515,5.76,14.499c-22.776,5.651-46.568,13.818-70.594,24.207c-24.026-10.39-47.817-18.557-70.594-24.207
		C187.202,98.122,189.119,93.28,191.136,88.608z M77.62,229.01c-26.911-36.175-35.655-68.51-23.991-88.714
		c11.663-20.203,44.035-28.801,88.823-23.581c5.054,0.588,10.207,1.35,15.436,2.261c-6.494,22.551-11.318,47.238-14.332,73.24
		c-21.011,15.612-39.979,32.132-56.261,49.032C83.892,237.174,80.657,233.092,77.62,229.01z M105.046,429.577
		c-10.994,0-19.937-8.944-19.937-19.938s8.944-19.937,19.937-19.937s19.937,8.944,19.937,19.937
		C124.983,420.633,116.039,429.577,105.046,429.577z M144.32,397.26c-5.268-16.676-20.88-28.8-39.273-28.8
		c-15.152,0-28.41,8.232-35.559,20.453c-7.007-3.919-12.367-8.932-15.857-14.975c-11.664-20.203-2.919-52.539,23.99-88.714
		c3.036-4.082,6.272-8.164,9.676-12.238c16.282,16.9,35.25,33.42,56.261,49.032c3.013,25.986,7.832,50.661,14.321,73.2
		C153.272,396.028,148.75,396.709,144.32,397.26z M320.804,425.628c-17.875,41.393-41.506,65.133-64.834,65.133
		s-46.959-23.74-64.834-65.133c-2.025-4.69-3.949-9.552-5.782-14.557c22.691-5.638,46.579-13.79,70.59-24.161
		c24.034,10.395,47.835,18.566,70.618,24.219C324.737,416.113,322.82,420.956,320.804,425.628z M369.487,397.52
		c-5.054-0.588-10.207-1.35-15.436-2.261c6.495-22.554,11.319-47.246,14.334-73.251c20.997-15.62,39.987-32.236,56.22-49.069
		c3.419,4.09,6.667,8.187,9.716,12.285c24.08,32.37,33.601,61.657,26.984,81.937c-5.397-2.603-11.444-4.062-17.827-4.062
		c-20.835,0-38.092,15.556-40.798,35.661C392.61,399.309,381.504,398.92,369.487,397.52z M443.475,424.215
		c-10.994,0-19.937-8.944-19.937-19.938c0-10.994,8.944-19.937,19.937-19.937s19.937,8.944,19.937,19.937
		C463.414,415.271,454.469,424.215,443.475,424.215z"/>
	<path style="fill:#231F20;" d="M255.97,217.292c-21.96,0-39.825,17.865-39.825,39.825s17.865,39.825,39.825,39.825
		s39.825-17.865,39.825-39.825C295.795,235.157,277.93,217.292,255.97,217.292z M255.97,275.702
		c-10.247,0-18.585-8.338-18.585-18.585c0-10.247,8.338-18.585,18.585-18.585c10.247,0,18.585,8.338,18.585,18.585
		C274.555,267.365,266.217,275.702,255.97,275.702z"/>
</g>
<g>
</g>
<g>
</g>
<g>
</g>
<g>
</g>
<g>
</g>
<g>
</g>
<g>
</g>
<g>
</g>
<g>
</g>
<g>
</g>
<g>
</g>
<g>
</g>
<g>
</g>
<g>
</g>
<g>
</g>
</svg>
